<svg xmlns="http://www.w3.org/2000/svg" aria-hidden="true" style="position:absolute;width:0;height:0;overflow:hidden">
  <defs>
    <symbol id="icon-youtube" viewBox="0 0 32 32">
      <path fill="#e8e8e2" d="M24.24 6c-1.36-.08-4.16-.16-8.4-.16h-.56c-4.08 0-6.8.08-8.16.24-1.84.16-3.12.64-3.84 1.28-.64.56-1.12 1.6-1.28 2.96-.08.88-.16 2.72-.16 5.52v.4c0 2.64.08 4.48.24 5.36.24 1.28.64 2.24 1.44 2.8.8.64 2.16 1.04 4.08 1.2 1.36.08 4.16.16 8.4.16h.56c4.08 0 6.8-.08 8.16-.24 1.84-.16 3.12-.64 3.84-1.28.64-.56 1.12-1.6 1.28-2.96.08-.88.16-2.72.16-5.52v-.4c0-2.64-.08-4.48-.24-5.36-.24-1.28-.64-2.24-1.44-2.8-.8-.64-2.16-1.04-4.08-1.2zm-3.12 9.84-8.8 5.28V10.56l8.8 5.28z" opacity=".8" style="fill:var(--color1, #e8e8e2)"/>
    </symbol>
    <symbol id="icon-instagram" viewBox="0 0 32 32">
      <path fill="#e8e8e2" d="M28.718 10.756a9.264 9.264 0 0 0-.596-3.145 6.547 6.547 0 0 0-3.743-3.737 9.42 9.42 0 0 0-3.108-.596c-1.368-.061-1.801-.078-5.273-.078s-3.916 0-5.274.078a9.413 9.413 0 0 0-3.106.596 6.541 6.541 0 0 0-3.743 3.737 9.288 9.288 0 0 0-.596 3.101c-.061 1.367-.08 1.8-.08 5.265s0 3.909.08 5.265a9.335 9.335 0 0 0 .596 3.104 6.548 6.548 0 0 0 3.744 3.735 9.37 9.37 0 0 0 3.106.639c1.369.061 1.803.08 5.274.08s3.916 0 5.274-.08a9.362 9.362 0 0 0 3.108-.595 6.555 6.555 0 0 0 3.743-3.737 9.35 9.35 0 0 0 .596-3.104c.061-1.365.08-1.798.08-5.265-.003-3.466-.003-3.906-.082-5.264zM15.99 22.531c-3.631 0-6.572-2.936-6.572-6.561s2.941-6.561 6.572-6.561c3.628 0 6.572 2.936 6.572 6.561s-2.944 6.561-6.572 6.561zm6.834-11.835a1.53 1.53 0 1 1 0-3.06 1.53 1.53 0 1 1 0 3.06z" opacity=".8" style="fill:var(--color1, #e8e8e2)"/>
      <path fill="#e8e8e2" d="M15.992 19.976a4.004 4.004 0 1 0 0-8.009 4.004 4.004 0 0 0 0 8.009z" opacity=".8" style="fill:var(--color1, #e8e8e2)"/>
    </symbol>
    <symbol id="icon-facebook" viewBox="0 0 32 32">
      <path fill="#e8e8e2" d="M19.52 4.64h.96v3.6h-1.2c-.48 0-.96 0-1.2.24s-.24.48-.24 1.04v1.28h2.64v3.04h-2.64v13.2h-4.08V13.76H11.6v-3.04h2.16V9.68c0-1.76.24-3.04.72-3.6.72-1.04 2.16-1.52 4.32-1.52.24.08.48.08.72.08z" opacity=".8" style="fill:var(--color1, #e8e8e2)"/>
    </symbol>
    <symbol id="icon-Food-Boutique" viewBox="0 0 227 32">
      <path d="M0 22.964c1.711-.209 2.653-.977 2.653-2.339V6.417c0-1.361-.943-2.164-2.653-2.339V2.682h17.734c.314 0 .454.105.489.349.105 1.047.175 2.095.733 4.643h-.873c-1.222-2.129-2.269-3.247-4.329-3.247h-2.967c-1.571 0-2.234.873-2.234 2.269v3.665c0 1.396.663 2.164 2.234 2.164h1.396c2.828 0 3.351-.663 3.631-2.234h.768v6.214h-.768c-.279-1.466-.803-2.199-3.631-2.199h-1.396c-1.571 0-2.234.768-2.234 2.164v4.154c0 1.361.943 2.129 3.002 2.339v1.396H0v-1.396zM27.766 24.57c-4.294 0-8.657-2.583-8.657-8.239 0-5.62 4.364-8.029 8.553-8.029 4.329 0 8.657 2.583 8.657 8.239 0 5.62-4.329 8.029-8.553 8.029zm-3.072-9.774c0 4.329 1.431 8.169 3.665 8.169 1.361 0 2.374-1.361 2.374-4.957 0-4.294-1.361-8.134-3.665-8.134-1.396 0-2.374 1.396-2.374 4.922zM46.534 24.57c-4.294 0-8.657-2.583-8.657-8.239 0-5.62 4.364-8.029 8.553-8.029 4.329 0 8.657 2.583 8.657 8.239 0 5.62-4.329 8.029-8.553 8.029zm-3.072-9.774c0 4.329 1.431 8.169 3.665 8.169 1.361 0 2.374-1.361 2.374-4.957 0-4.294-1.361-8.134-3.665-8.134-1.396 0-2.374 1.396-2.374 4.922zM63.312 24.57c-3.281 0-6.668-2.688-6.668-7.855 0-5.551 3.805-8.413 7.505-8.413 3.84 0 4.852 3.002 4.852-.524V5.683c0-1.641-.908-1.92-2.199-1.815V2.507l5.69-.943c1.187-.175 1.745.349 1.745 1.396v17.839c0 1.152.454 1.92 1.466 1.501v.768c-.489 1.187-1.745 1.501-2.828 1.501-1.187 0-2.688-.384-3.107-1.431-.279-.663-.593-1.012-1.117-1.012-.698 0-2.095 2.444-5.341 2.444zm-1.048-9.67c0 3.456 1.536 6.842 3.77 6.842 1.361 0 2.967-.977 2.967-3.91v-1.641c0-4.538-2.129-6.319-3.875-6.319-1.78 0-2.863 2.199-2.863 5.027zM83.032 22.964c1.711-.209 2.653-.977 2.653-2.339V6.452c0-1.396-.943-2.199-2.653-2.374V2.682h10.787c6.842 0 10.228 1.641 10.228 5.167 0 1.99-1.152 3.945-5.132 4.573 4.468.628 6.388 2.723 6.388 5.69 0 4.049-3.596 6.249-8.483 6.249-2.793 0-8.727-.873-13.789 0v-1.396zm8.553-1.815c0 .908.559 1.327 1.571 1.327h1.222c2.653 0 4.643-1.012 4.643-4.399 0-3.281-2.025-4.713-5.865-4.713-.908 0-1.571.698-1.571 2.095v5.69zm0-11.555c0 1.396.663 2.095 2.234 2.095h.908c2.409 0 3.037-1.885 3.037-3.491 0-2.444-1.327-3.805-3.596-3.805h-.349c-1.571 0-2.234.733-2.234 2.129v3.072zM115.537 24.57c-4.294 0-8.657-2.583-8.657-8.239 0-5.62 4.364-8.029 8.553-8.029 4.329 0 8.657 2.583 8.657 8.239 0 5.62-4.329 8.029-8.553 8.029zm-3.072-9.774c0 4.329 1.431 8.169 3.665 8.169 1.361 0 2.374-1.361 2.374-4.957 0-4.294-1.361-8.134-3.665-8.134-1.396 0-2.374 1.396-2.374 4.922zM131.677 24.57c-2.444 0-5.097-1.012-5.097-6.493v-5.551c0-1.606-.908-1.885-2.199-1.85V9.315l5.69-.943c1.187-.175 1.745.349 1.745 1.396v7.471c0 2.444 1.012 4.189 2.897 4.189 1.92 0 2.897-1.745 2.897-4.189v-4.713c0-1.606-.908-1.885-2.199-1.85V9.315l5.655-.943c1.222-.175 1.78.349 1.78 1.396v11.031c0 1.152.454 1.92 1.466 1.501v.768c-.489 1.187-1.745 1.501-2.932 1.501-2.513 0-3.212-1.571-3.386-2.339-.105-.489-.384-.733-.628-.733s-.419.209-.593.454c-.977 1.327-2.339 2.618-5.097 2.618zM152.495 24.535c-3.212 0-5.167-1.78-5.167-5.167v-7.645c0-1.222-.279-1.466-1.082-1.466h-1.571V9.14c2.897-.663 4.294-1.99 5.481-3.91.279-.454.524-.593.977-.593h.628c.524 0 .838.314.838.838l-.035 2.164c0 .768.384.977 2.164.977h2.269v1.85l-2.269-.14c-1.78-.105-2.164.209-2.164 1.466v7.401c0 1.92.209 3.212 1.92 3.212.454 0 1.152-.07 1.815-.559.454.559.628 1.047.175 1.466-.803.698-2.234 1.222-3.98 1.222zM158.406 22.999c1.606-.105 2.199-.628 2.199-2.513v-7.994c0-1.641-.908-1.92-2.164-1.815V9.316l5.655-.943c1.187-.175 1.745.349 1.745 1.396v10.717c0 1.885.593 2.409 2.164 2.513v1.361h-9.6v-1.361zm1.361-19.025c0-1.676 1.396-2.967 3.037-2.967 1.606 0 2.967 1.292 2.967 2.967s-1.361 2.967-2.967 2.967c-1.641 0-3.037-1.292-3.037-2.967zM178.431 29.667c1.99-.14 2.583-.663 2.583-2.409v-3.735c0-.628-.314-.838-.628-.838a.692.692 0 0 0-.489.209c-.698.698-2.199 1.676-4.399 1.676-3.596 0-6.912-2.653-6.912-7.785 0-5.585 3.875-8.483 7.889-8.483 3.491 0 4.957 2.129 6.249 2.129 1.222 0 1.711-2.095 2.688-2.095.628 0 .838.349.838.838v18.083c0 1.745.593 2.269 2.164 2.409v1.327h-9.984v-1.327zm-4.224-14.802c0 3.456 1.466 6.877 3.91 6.877 1.327 0 2.863-.977 2.897-4.887-.035-5.236-2.199-6.982-3.945-6.982-1.885 0-2.863 2.199-2.863 4.992zM195.191 24.57c-2.444 0-5.097-1.012-5.097-6.493v-5.551c0-1.606-.908-1.885-2.199-1.85V9.315l5.69-.943c1.187-.175 1.745.349 1.745 1.396v7.471c0 2.444 1.012 4.189 2.897 4.189 1.92 0 2.897-1.745 2.897-4.189v-4.713c0-1.606-.908-1.885-2.199-1.85V9.315l5.655-.943c1.222-.175 1.78.349 1.78 1.396v11.031c0 1.152.454 1.92 1.466 1.501v.768c-.489 1.187-1.745 1.501-2.932 1.501-2.513 0-3.212-1.571-3.386-2.339-.105-.489-.384-.733-.628-.733s-.419.209-.593.454c-.977 1.327-2.339 2.618-5.097 2.618zM217.917 24.57c-4.364 0-8.692-2.513-8.692-7.994 0-5.725 4.678-8.273 9.007-8.273 3.7 0 6.703 1.85 6.703 4.922 0 3.142-3.037 3.316-6.109 3.561l-2.723.209c-.593.035-.908.314-.908 1.117 0 2.583 2.793 3.735 5.097 3.735 1.222 0 2.897-.349 4.154-1.78l1.047.943c-.663 1.361-3.491 3.561-7.575 3.561zm-2.967-10.438c0 1.012.244 1.536 1.152 1.501l1.257-.14c2.409-.244 2.897-.873 2.897-2.234 0-1.676-.698-3.351-2.513-3.351-2.269 0-2.793 2.548-2.793 4.224z"/>
    </symbol>
    <symbol id="icon-logo" viewBox="0 0 32 32">
      <path fill="#e8e8e2" d="M17.488 4.624a5.36 5.36 0 0 0-1.817-1.707c-2.011-1.153-4.601-.951-6.992.388C4.24 5.792 1.334 10.466 1.334 16c0 7.387 5.347 13.351 12.329 14.48a14.67 14.67 0 0 0 2.337.187 14.625 14.625 0 0 0 10.426-4.32 14.605 14.605 0 0 0 4.24-10.459c-.031-2.576-1.064-5.737-2.697-8.264-1.627-2.517-4.128-4.811-7.236-4.781-1.517.003-2.553.837-3.245 1.784v-.001zm8.873 5.527a6.332 6.332 0 0 0-1.684-.044l-1.547-2.6-2.291 1.36 1.189 2a9.055 9.055 0 0 0-1.42.833 7.286 7.286 0 0 0-.024-.077c-.356-1.08-1.044-1.967-1.961-2.848l.005-.027c.092-.431.239-.987.459-1.527.497-1.221 1.075-1.716 1.653-1.716h.015c1.721-.019 3.515 1.303 4.975 3.561.227.351.437.712.632 1.083l-.001.001zm-8.214 3.996c-.44.011-.892.06-1.333.156a5.013 5.013 0 0 0-1.416-1.527c-1.053-.74-2.496-1.107-4.056-.524a18.259 18.259 0 0 0-.432-.241l4.311-4.225-1.867-1.904-5.113 5.012c-1.08-.313-2.089-.425-2.996-.3a11.607 11.607 0 0 1 4.74-4.963c1.819-1.019 3.383-.963 4.361-.401.933.535 1.708 1.748 1.513 3.916l-.06.671.504.447c1.096.969 1.552 1.596 1.749 2.195.139.42.184.928.095 1.689zm-3.747 1.34c-1.139.953-1.903 2.291-2.347 3.736L8.088 14.87l-1.972 1.797 5.451 5.984c-.007 1.589.197 3.216.493 4.687A11.933 11.933 0 0 1 4 16.001c0-1.387.385-2.143.839-2.473.428-.315 1.368-.572 3.293.139.696.257 1.501.652 2.423 1.225l.669.416.688-.387c.831-.467 1.465-.301 1.952.04.213.149.396.336.536.527zm2.353 12.489 9.723-10.716-1.975-1.792-3.909 4.308.009-1.352-2.667-.019-.031 4.333-3.311 3.649c-.251-1.361-.4-2.824-.352-4.196.085-2.34 1.02-4.263 2.403-5.024.573-.316 1.585-.44 2.385-.299l1.187.207.327-1.159c.171-.604.623-1.251 1.329-1.827a6.365 6.365 0 0 1 2.445-1.221c1.068-.261 1.979-.125 2.579.288.524.36 1.051 1.096 1.1 2.605v.024l.004.213a11.947 11.947 0 0 1-11.246 11.976z" style="fill:var(--color1, #e8e8e2)"/>
    </symbol>
    <symbol id="icon-favicon" viewBox="0 0 32 32">
      <path fill="#6d8434" style="fill: var(--color1, #6d8434)" d="M17.488 4.624c-0.463-0.704-1.086-1.289-1.817-1.707-2.011-1.153-4.601-0.951-6.992 0.388-4.439 2.487-7.345 7.161-7.345 12.695 0 7.387 5.347 13.351 12.329 14.48 0.763 0.123 1.543 0.187 2.337 0.187 1.938 0.007 3.857-0.372 5.647-1.113s3.415-1.832 4.779-3.207 2.443-3.008 3.17-4.804c0.728-1.796 1.092-3.718 1.070-5.655-0.031-2.576-1.064-5.737-2.697-8.264-1.627-2.517-4.128-4.811-7.236-4.781-1.517 0.003-2.553 0.837-3.245 1.784v-0.001zM26.361 10.151c-0.557-0.090-1.123-0.104-1.684-0.044l-1.547-2.6-2.291 1.36 1.189 2c-0.498 0.234-0.973 0.513-1.42 0.833-0.008-0.026-0.016-0.052-0.024-0.077-0.356-1.080-1.044-1.967-1.961-2.848l0.005-0.027c0.092-0.431 0.239-0.987 0.459-1.527 0.497-1.221 1.075-1.716 1.653-1.716h0.015c1.721-0.019 3.515 1.303 4.975 3.561 0.227 0.351 0.437 0.712 0.632 1.083l-0.001 0.001zM18.147 14.147c-0.44 0.011-0.892 0.060-1.333 0.156-0.36-0.602-0.842-1.123-1.416-1.527-1.053-0.74-2.496-1.107-4.056-0.524-0.143-0.082-0.287-0.163-0.432-0.241l4.311-4.225-1.867-1.904-5.113 5.012c-1.080-0.313-2.089-0.425-2.996-0.3 1.043-2.094 2.696-3.824 4.74-4.963 1.819-1.019 3.383-0.963 4.361-0.401 0.933 0.535 1.708 1.748 1.513 3.916l-0.060 0.671 0.504 0.447c1.096 0.969 1.552 1.596 1.749 2.195 0.139 0.42 0.184 0.928 0.095 1.689zM14.4 15.487c-1.139 0.953-1.903 2.291-2.347 3.736l-3.965-4.353-1.972 1.797 5.451 5.984c-0.007 1.589 0.197 3.216 0.493 4.687-2.36-0.81-4.407-2.34-5.852-4.373s-2.218-4.469-2.208-6.964c0-1.387 0.385-2.143 0.839-2.473 0.428-0.315 1.368-0.572 3.293 0.139 0.696 0.257 1.501 0.652 2.423 1.225l0.669 0.416 0.688-0.387c0.831-0.467 1.465-0.301 1.952 0.040 0.213 0.149 0.396 0.336 0.536 0.527zM16.753 27.976l9.723-10.716-1.975-1.792-3.909 4.308 0.009-1.352-2.667-0.019-0.031 4.333-3.311 3.649c-0.251-1.361-0.4-2.824-0.352-4.196 0.085-2.34 1.020-4.263 2.403-5.024 0.573-0.316 1.585-0.44 2.385-0.299l1.187 0.207 0.327-1.159c0.171-0.604 0.623-1.251 1.329-1.827 0.717-0.579 1.551-0.996 2.445-1.221 1.068-0.261 1.979-0.125 2.579 0.288 0.524 0.36 1.051 1.096 1.1 2.605v0.024l0.004 0.213c0.013 3.056-1.145 6.001-3.237 8.229s-4.959 3.569-8.009 3.747z"></path>
    </symbol>
    <symbol id="icon-check" viewBox="0 0 32 32">
      <path fill="none" stroke="#e8e8e2" stroke-linecap="round" stroke-linejoin="round" stroke-width="3.556" d="M26.667 8 12 22.667 5.333 16" style="stroke:var(--color1, #e8e8e2)"/>
    </symbol>
    <symbol id="icon-discount" viewBox="0 0 32 32">
      <path fill="#6d8434" d="M32 16c0 8.837-7.163 16-16 16S0 24.837 0 16 7.163 0 16 0s16 7.163 16 16z" style="fill:var(--color2, #6d8434)"/>
      <path fill="#fafafa" d="m26.947 20.863-.233.63-4.294-1.582.233-.63.354.131.004-.012a1.224 1.224 0 0 1-.099-1.1c.29-.786 1.118-1.143 2.127-.771s1.406 1.18 1.116 1.966c-.175.474-.508.693-.802.768l-.004.012 1.597.589zm-3.557-2.266c-.191.516.118.992.797 1.242.685.252 1.223.089 1.413-.427.204-.552-.192-1.032-.792-1.254s-1.214-.113-1.418.439zM25.093 22.529c.11-.15.327-.229.513-.093s.171.363.061.512c-.117.16-.325.238-.511.102s-.18-.361-.062-.521zm-.248-.593-.397.542-2.64-1.93.397-.542 2.64 1.93zM21.828 23.303c-.554.274-1.144.585-1.641-.017-.4-.483-.233-1.126.38-1.63.815-.671 1.48-.58 1.945-.068l-.504.415c-.249-.251-.559-.385-1.093.054-.361.297-.367.601-.237.759.261.316.583.092 1.027-.124.478-.236 1.086-.604 1.559-.032.343.414.25 1.046-.382 1.567-.687.565-1.319.464-1.716.053l.504-.415c.198.169.464.29.869-.044.311-.256.381-.513.235-.691-.212-.257-.51-.044-.945.173zM18.35 25.162c.132.307.462.62 1.007.435.624-.212.709-.836.51-1.417s-.641-1.026-1.271-.812c-.545.185-.617.629-.524.982l-.636.216c-.196-.731.176-1.445.982-1.719.927-.315 1.755.148 2.085 1.117s-.042 1.839-.963 2.152c-.806.274-1.509-.062-1.828-.738l.636-.216zM15.606 23.245c1.022.062 1.599.809 1.537 1.825s-.724 1.687-1.746 1.624c-1.022-.062-1.599-.809-1.537-1.825s.724-1.687 1.746-1.624zm-.033.55c-.639-.039-1.002.445-1.042 1.116-.041.677.261 1.196.9 1.235s1.001-.439 1.042-1.116c.041-.671-.261-1.196-.9-1.235zM10.77 25.275l-.605-.293 1.431-2.941.605.293-.185.38.012.006c.267-.155.685-.237 1.191.009.547.265.825.791.497 1.465l-.988 2.032-.61-.296.904-1.859c.193-.397.149-.731-.265-.932-.466-.226-.903-.09-1.116.348l-.871 1.79zM7.833 22.957c-.406-.453-.464-1.045.095-1.543l1.685-1.505.453.505-1.542 1.377c-.329.294-.416.62-.108.963.346.386.802.425 1.165.101l1.485-1.326.448.5-2.44 2.178-.448-.5.315-.281-.009-.01c-.306.042-.724-.04-1.1-.46zM6.447 19.376l.253.56 1.617-.728c.338-.152.306-.334.103-.72l.502-.226c.085.109.163.236.237.399.222.49.121.858-.509 1.142l-1.669.751.195.432-.502.226-.195-.432-.94.423-.28-.618.94-.423-.253-.56.502-.226zM4.494 12.648l.146-.656 4.467.994-.146.656-.369-.082-.003.012c.181.217.355.584.245 1.077-.182.818-.954 1.283-2.004 1.049s-1.552-.981-1.37-1.8c.11-.493.411-.754.692-.869l.003-.012-1.662-.37zm3.828 1.769c.12-.537-.25-.967-.956-1.124-.712-.158-1.223.075-1.343.613-.128.575.329.998.953 1.136s1.218-.05 1.346-.625zM6.103 10.748c-.089.163-.293.271-.495.161s-.218-.336-.129-.5c.095-.174.29-.279.493-.17s.226.334.132.508zm.324.555.321-.59 2.875 1.559-.321.59-2.875-1.559zM9.241 9.534c.514-.344 1.057-.73 1.629-.198.459.427.379 1.086-.163 1.666-.72.772-1.391.769-1.919.322l.445-.477c.28.216.605.309 1.076-.197.319-.342.285-.644.135-.783-.3-.279-.59-.015-1.002.257-.443.296-.998.741-1.542.236-.394-.366-.385-1.004.174-1.603.607-.65 1.247-.633 1.694-.278l-.445.477c-.218-.142-.498-.227-.856.157-.275.295-.311.559-.142.715.244.227.511-.023.914-.295z" style="fill:var(--color3, #fafafa)"/>
      <path fill="#fafafa" d="M12.396 7.25c-.172-.286-.542-.552-1.057-.295-.59.295-.589.924-.314 1.473s.774.93 1.37.632c.515-.257.526-.706.386-1.044l.601-.3c.293.698.022 1.456-.74 1.836-.876.438-1.759.091-2.218-.824s-.208-1.828.662-2.262c.762-.38 1.504-.143 1.911.483l-.601.3zM15.372 8.766c-1.021.074-1.693-.589-1.767-1.604s.492-1.768 1.513-1.843c1.021-.074 1.693.589 1.768 1.604s-.492 1.768-1.513 1.843zm-.041-.549c.638-.046.933-.575.884-1.245-.05-.677-.418-1.15-1.057-1.104s-.934.568-.884 1.245c.049.67.418 1.15 1.057 1.104zM19.919 6.105l.638.21-1.026 3.105-.638-.21.133-.401-.012-.004c-.244.189-.647.326-1.182.149-.577-.191-.923-.675-.688-1.386l.709-2.145.644.213-.649 1.963c-.139.419-.051.745.387.889.492.162.907-.031 1.059-.493l.625-1.89zM23.143 8.004c.462.396.597.975.108 1.543l-1.473 1.713-.515-.441 1.348-1.567c.288-.335.331-.669-.019-.969-.394-.337-.851-.316-1.168.053l-1.298 1.509-.51-.437 2.132-2.48.51.437-.275.32.01.008c.298-.082.723-.055 1.15.311zM24.984 11.342l-.326-.521-1.504.939c-.315.196-.258.372-.005.727l-.467.291a1.917 1.917 0 0 1-.288-.363c-.285-.456-.236-.834.351-1.2l1.553-.969-.252-.401.467-.291.252.401.874-.546.36.575-.874.546.326.521-.467.291zM17.556 14.756c-2.8.622-3.453 2.542-4.1 4.15l.588.205.296-.716c.149.053.305.093.417.093 3.422 0 4.356-5.289 4.356-5.289-.311.622-2.489.7-4.044 1.011s-2.178 1.633-2.178 2.256.544 1.167.544 1.167c1.011-2.878 4.122-2.878 4.122-2.878z" style="fill:var(--color3, #fafafa)"/>
    </symbol>
    <symbol id="icon-close" viewBox="0 0 32 32">
      <path d="M25 9.093 22.907 7 16 13.907 9.093 7 7 9.093 13.907 16 7 22.907 9.093 25 16 18.093 22.907 25 25 22.907 18.093 16 25 9.093z"/>
    </symbol>
    <symbol id="icon-organic-food" viewBox="0 0 32 32">
      <path fill="#fdc152" d="M32 16c0 8.837-7.163 16-16 16S0 24.837 0 16 7.163 0 16 0s16 7.163 16 16z" style="fill:var(--color4, #fdc152)"/>
      <path fill="#010101" d="M25.174 17.182c.104-.813.731-1.233 1.538-1.13s1.308.668 1.204 1.48c-.104.813-.731 1.233-1.538 1.13s-1.308-.668-1.204-1.481zm.437.056c-.065.508.303.823.836.891.538.069.968-.145 1.033-.652s-.297-.823-.836-.891c-.533-.068-.968.145-1.033.652zM27.137 20.516a1.724 1.724 0 0 1-.093.217l-.478-.169.003-.01c.255-.458.065-.966-.461-1.152l-1.26-.446.179-.507 2.466.873-.179.507-.463-.164-.003.01c.263.24.403.518.289.841zM25.819 22.819l-.284.457-2.07-1.286c-.639-.397-.682-.96-.29-1.59.397-.639.951-.784 1.355-.599l-.286.461c-.223-.078-.468-.013-.692.348-.238.383-.185.687.215.935l.27.167.005-.009c-.092-.22-.131-.527.088-.879.346-.557.992-.734 1.692-.299.705.438.828 1.093.482 1.65-.219.352-.511.454-.741.474l-.005.009.261.162zm-1.369-1.676c-.23.37-.124.743.346 1.035s.851.221 1.081-.149c.248-.4.075-.791-.338-1.048-.409-.254-.84-.238-1.089.162zM23.459 24.426c.131.137.311.164.571-.083.312-.296.335-.502.121-.765l.379-.36c.327.381.365.889-.207 1.433-.419.399-.883.535-1.363.031l-.857-.902c-.127-.134-.224-.176-.362-.016l-.176-.186a.8.8 0 0 1 .188-.256c.208-.198.375-.215.588-.065l.007-.007c-.04-.28.066-.6.359-.878.386-.367.835-.37 1.138-.051.395.416.21.838-.176 1.383-.24.334-.383.541-.21.723zm-.544-1.666c-.323.307-.394.678-.101.986l.272.286c.021-.104.131-.294.277-.504.256-.377.309-.604.125-.797-.166-.174-.361-.172-.573.029zM21.582 26.621c-.427.233-.899.171-1.186-.355l-.867-1.586.476-.26.793 1.451c.169.31.408.436.731.26.364-.199.477-.547.29-.888l-.764-1.397.472-.258 1.255 2.296-.472.258-.162-.297-.009.005c-.023.246-.163.556-.558.772zM19.932 27.718c.141-.046.319.004.376.18s-.059.315-.2.361c-.151.049-.322.002-.379-.173s.053-.319.204-.368zm.117-.501-.511.166-.808-2.489.511-.166.808 2.489zM16.83 26.935c.054.261.263.56.72.502.523-.067.689-.542.627-1.03s-.338-.907-.866-.839c-.457.058-.584.395-.568.687l-.533.068c-.036-.604.37-1.105 1.045-1.192.777-.099 1.351.395 1.455 1.208s-.327 1.436-1.099 1.534c-.675.086-1.172-.289-1.314-.87l.533-.068zM11.643 27.731c.328.118.466.124.554-.16l.085-.274-.459-.143.131-.42.459.143.648-2.077.518.162-.648 2.077.357.111-.131.42-.357-.111-.099.318c-.165.528-.447.643-.858.515a1.86 1.86 0 0 1-.331-.141l.131-.42zM11.604 24.07c.717.396.878 1.133.484 1.846s-1.103.971-1.82.575c-.717-.396-.878-1.133-.484-1.846s1.103-.971 1.82-.575zm-.213.385c-.448-.247-.877-.022-1.136.449-.262.475-.222.954.226 1.201s.874.026 1.136-.449c.26-.471.222-.954-.226-1.201z" style="fill:var(--color5, #010101)"/>
      <path fill="#010101" d="M9.701 22.674c.594.564.562 1.318.001 1.909s-1.312.66-1.906.096c-.594-.564-.562-1.318-.001-1.909s1.312-.66 1.906-.096zm-.303.32c-.371-.353-.843-.243-1.213.147-.374.393-.456.866-.085 1.219s.839.247 1.213-.147c.37-.39.456-.866.085-1.219z" style="fill:var(--color5, #010101)"/>
      <path fill="#010101" d="m4.684 22.229-.277-.461 3.138-1.885.277.461-.259.156.005.009a.978.978 0 0 1 .736.49c.345.575.153 1.27-.584 1.713s-1.441.286-1.786-.289c-.208-.347-.178-.664-.078-.885l-.005-.009-1.168.701zm3.196-1.084c-.227-.377-.678-.423-1.174-.125-.5.301-.668.718-.441 1.095.243.404.74.397 1.179.134s.678-.7.436-1.104zM6.849 16.375c.032.819-.517 1.337-1.331 1.368s-1.401-.443-1.432-1.262.517-1.337 1.331-1.368c.813-.031 1.401.443 1.432 1.261zm-.44.017c-.02-.512-.434-.762-.971-.741-.542.021-.931.302-.911.814s.429.762.971.741c.537-.021.931-.302.911-.814zM4.369 13.36c.016-.091.033-.155.057-.229l.499.089-.002.01c-.177.494.093.963.642 1.062l1.315.235-.095.529-2.575-.461.095-.529.484.087.002-.01c-.298-.194-.482-.445-.422-.783zM5.287 10.885l.206-.497 2.252.933c.695.288.828.836.544 1.522-.288.695-.811.928-1.239.811l.208-.501c.232.041.464-.063.626-.455.172-.416.071-.707-.364-.888l-.293-.121-.004.009c.127.202.215.499.056.882-.251.605-.86.885-1.621.57-.766-.317-.995-.944-.744-1.549.159-.383.431-.531.654-.588l.004-.009-.284-.118zm1.623 1.432c.167-.402.002-.753-.509-.965s-.876-.08-1.042.322c-.18.435.054.793.503.979.445.184.868.099 1.048-.336zM7.356 8.912c-.151-.115-.333-.112-.55.173-.261.342-.251.549.003.774l-.316.415c-.384-.324-.502-.82-.024-1.447.351-.46.786-.669 1.34-.247l.99.754c.147.112.249.138.36-.041l.204.155a.817.817 0 0 1-.144.283c-.174.228-.336.272-.571.158l-.006.008c.084.27.03.602-.215.924-.323.424-.766.498-1.116.232-.456-.347-.341-.794-.046-1.393.184-.368.292-.595.092-.747zm.802 1.558c.27-.354.281-.732-.057-.99l-.314-.239c-.004.107-.082.311-.193.541-.192.413-.208.646.003.807.191.146.384.112.561-.12zM8.821 6.462c.383-.3.859-.316 1.228.155l1.116 1.422-.427.335-1.021-1.301c-.218-.278-.474-.364-.764-.136-.326.256-.381.618-.141.924l.983 1.253-.423.332-1.615-2.058.423-.332.209.266.008-.006c-.018-.246.069-.575.424-.853zM10.294 5.089c-.132.068-.315.048-.4-.116s.007-.321.139-.389c.141-.073.318-.055.402.109s0 .323-.141.396zm-.034.514.477-.247 1.204 2.323-.477.247-1.204-2.323zM13.485 5.351c-.096-.249-.351-.51-.792-.377-.505.151-.592.648-.451 1.119s.481.839.991.686c.441-.132.512-.485.448-.77l.515-.154c.134.591-.184 1.151-.837 1.346-.75.225-1.398-.169-1.633-.954s.089-1.47.834-1.693c.652-.195 1.204.094 1.438.643l-.515.154zM18.451 3.719c-.343-.063-.48-.046-.521.248l-.04.284.477.067-.061.436-.477-.067-.301 2.155-.538-.075.301-2.155-.37-.052.061-.436.37.052.046-.33c.076-.548.337-.708.763-.648.132.018.246.05.35.085l-.061.436zM19.096 7.321c-.772-.273-1.051-.975-.779-1.742s.929-1.137 1.702-.864c.772.273 1.051.975.779 1.742s-.929 1.137-1.702.864zm.147-.415c.483.171.869-.122 1.048-.628.181-.512.063-.977-.419-1.148s-.867.117-1.048.628c-.179.507-.063.977.419 1.148z" style="fill:var(--color5, #010101)"/>
      <path fill="#010101" d="M21.17 8.361c-.678-.46-.77-1.209-.313-1.883s1.187-.865 1.865-.405c.678.46.77 1.209.313 1.883s-1.187.865-1.865.405zm.247-.364c.424.287.871.102 1.173-.343.305-.449.308-.929-.115-1.216s-.868-.106-1.173.343c-.302.445-.308.929.115 1.216zM26.247 8.03l.347.411-2.796 2.363-.347-.411.231-.195-.007-.008a.979.979 0 0 1-.805-.365c-.433-.512-.355-1.229.302-1.784s1.376-.513 1.809-.001c.261.309.282.627.218.861l.007.008 1.04-.879zm-2.98 1.582c.284.336.737.309 1.179-.065.446-.377.544-.815.26-1.152-.304-.36-.794-.274-1.186.057s-.558.8-.253 1.16zM17.6 14.72c-2.88.64-3.552 2.614-4.218 4.269l.605.211.304-.736c.154.054.314.096.429.096 3.52 0 4.48-5.44 4.48-5.44-.32.64-2.56.72-4.16 1.04s-2.24 1.68-2.24 2.32c0 .64.56 1.2.56 1.2 1.04-2.96 4.24-2.96 4.24-2.96z" style="fill:var(--color5, #010101)"/>
    </symbol>
    <symbol id="icon-search" viewBox="0 0 32 32">
      <path d="M20.667 18.667h-1.053l-.373-.36a8.625 8.625 0 0 0 2.093-5.64 8.668 8.668 0 0 0-5.35-8.007A8.66 8.66 0 0 0 6.54 6.539a8.67 8.67 0 0 0-1.879 9.444 8.671 8.671 0 0 0 8.007 5.35 8.63 8.63 0 0 0 5.64-2.093l.36.373v1.053l6.667 6.653 1.987-1.987-6.653-6.667zm-8 0c-3.32 0-6-2.68-6-6s2.68-6 6-6 6 2.68 6 6-2.68 6-6 6z"/>
    </symbol>
    <symbol id="icon-shop" viewBox="0 0 32 32">
      <path fill="#e8e8e2" d="M4.8 1.6a1.6 1.6 0 0 0 0 3.2h1.952l.488 1.955.016.067 2.173 8.688L8 16.937c-2.016 2.016-.589 5.462 2.262 5.462h13.737a1.6 1.6 0 0 0 0-3.2H10.261l1.6-1.6h10.537a1.602 1.602 0 0 0 1.431-.885l4.8-9.6c.122-.244.18-.515.167-.787s-.094-.537-.237-.769a1.597 1.597 0 0 0-1.36-.759H10.047L9.551 2.81a1.601 1.601 0 0 0-1.552-1.212h-3.2zm20.8 24.8a2.4 2.4 0 1 1-4.799 0 2.4 2.4 0 0 1 4.799 0zm-15.2 2.4a2.401 2.401 0 1 0-.001-4.802A2.401 2.401 0 0 0 10.4 28.8z" style="fill:var(--color1, #e8e8e2)"/>
    </symbol>
    <symbol id="icon-down-categories" viewBox="0 0 32 32">
      <path stroke-linecap="round" stroke-linejoin="round" stroke-width="3.2" d="m8 12 8 8 8-8"/>
    </symbol>
  </defs>
</svg>